<mxfile host="app.diagrams.net" modified="2023-06-21T13:30:21.701Z" agent="Mozilla/5.0 (Windows NT 10.0; Win64; x64) AppleWebKit/537.36 (KHTML, like Gecko) Chrome/114.0.0.0 Safari/537.36 Edg/114.0.1823.51" etag="LcAx7r3qEpMedtwXg3Ei" version="21.4.0" type="device">
  <diagram name="Page-1" id="Mve10BLGD09zUdCkLgWE">
    <mxGraphModel dx="1142" dy="640" grid="1" gridSize="10" guides="1" tooltips="1" connect="1" arrows="1" fold="1" page="1" pageScale="1" pageWidth="827" pageHeight="1169" math="0" shadow="0">
      <root>
        <mxCell id="0" />
        <mxCell id="1" parent="0" />
        <mxCell id="6f38eK32KTg8X7r3hpz9-2" value="Vending machine" style="swimlane;whiteSpace=wrap;html=1;" vertex="1" parent="1">
          <mxGeometry x="240" y="80" width="410" height="505" as="geometry" />
        </mxCell>
        <mxCell id="6f38eK32KTg8X7r3hpz9-10" style="rounded=0;orthogonalLoop=1;jettySize=auto;html=1;exitX=0;exitY=0.5;exitDx=0;exitDy=0;entryX=1;entryY=0.5;entryDx=0;entryDy=0;dashed=1;endArrow=none;endFill=0;startArrow=block;startFill=0;" edge="1" parent="6f38eK32KTg8X7r3hpz9-2" source="6f38eK32KTg8X7r3hpz9-5" target="6f38eK32KTg8X7r3hpz9-8">
          <mxGeometry relative="1" as="geometry" />
        </mxCell>
        <mxCell id="6f38eK32KTg8X7r3hpz9-5" value="Đăng nhập" style="ellipse;whiteSpace=wrap;html=1;" vertex="1" parent="6f38eK32KTg8X7r3hpz9-2">
          <mxGeometry x="220" y="405" width="120" height="80" as="geometry" />
        </mxCell>
        <mxCell id="6f38eK32KTg8X7r3hpz9-6" value="Đăng kí" style="ellipse;whiteSpace=wrap;html=1;" vertex="1" parent="6f38eK32KTg8X7r3hpz9-2">
          <mxGeometry x="30" y="80" width="120" height="80" as="geometry" />
        </mxCell>
        <mxCell id="6f38eK32KTg8X7r3hpz9-7" value="Chọn nước" style="ellipse;whiteSpace=wrap;html=1;" vertex="1" parent="6f38eK32KTg8X7r3hpz9-2">
          <mxGeometry x="30" y="245" width="120" height="80" as="geometry" />
        </mxCell>
        <mxCell id="6f38eK32KTg8X7r3hpz9-9" style="rounded=0;orthogonalLoop=1;jettySize=auto;html=1;exitX=0.5;exitY=0;exitDx=0;exitDy=0;entryX=0.5;entryY=1;entryDx=0;entryDy=0;dashed=1;endArrow=block;endFill=0;startArrow=none;startFill=0;" edge="1" parent="6f38eK32KTg8X7r3hpz9-2" source="6f38eK32KTg8X7r3hpz9-8" target="6f38eK32KTg8X7r3hpz9-7">
          <mxGeometry relative="1" as="geometry" />
        </mxCell>
        <mxCell id="6f38eK32KTg8X7r3hpz9-19" style="rounded=0;orthogonalLoop=1;jettySize=auto;html=1;exitX=1;exitY=0;exitDx=0;exitDy=0;entryX=0.331;entryY=0.964;entryDx=0;entryDy=0;entryPerimeter=0;dashed=1;endArrow=block;endFill=0;" edge="1" parent="6f38eK32KTg8X7r3hpz9-2" source="6f38eK32KTg8X7r3hpz9-8" target="6f38eK32KTg8X7r3hpz9-18">
          <mxGeometry relative="1" as="geometry" />
        </mxCell>
        <mxCell id="6f38eK32KTg8X7r3hpz9-8" value="Thanh toán" style="ellipse;whiteSpace=wrap;html=1;" vertex="1" parent="6f38eK32KTg8X7r3hpz9-2">
          <mxGeometry x="20" y="385" width="120" height="80" as="geometry" />
        </mxCell>
        <mxCell id="6f38eK32KTg8X7r3hpz9-11" value="&amp;lt;&amp;lt;include&amp;gt;&amp;gt;" style="text;html=1;align=center;verticalAlign=middle;resizable=0;points=[];autosize=1;strokeColor=none;fillColor=none;" vertex="1" parent="6f38eK32KTg8X7r3hpz9-2">
          <mxGeometry x="150" y="390" width="90" height="30" as="geometry" />
        </mxCell>
        <mxCell id="6f38eK32KTg8X7r3hpz9-12" value="&amp;lt;&amp;lt;extends&amp;gt;&amp;gt;" style="text;html=1;align=center;verticalAlign=middle;resizable=0;points=[];autosize=1;strokeColor=none;fillColor=none;" vertex="1" parent="6f38eK32KTg8X7r3hpz9-2">
          <mxGeometry y="340" width="90" height="30" as="geometry" />
        </mxCell>
        <mxCell id="6f38eK32KTg8X7r3hpz9-18" value="Xác thực giao dịch" style="ellipse;whiteSpace=wrap;html=1;" vertex="1" parent="6f38eK32KTg8X7r3hpz9-2">
          <mxGeometry x="250" y="230" width="120" height="80" as="geometry" />
        </mxCell>
        <mxCell id="6f38eK32KTg8X7r3hpz9-20" value="&amp;lt;&amp;lt;include&amp;gt;&amp;gt;" style="text;html=1;align=center;verticalAlign=middle;resizable=0;points=[];autosize=1;strokeColor=none;fillColor=none;" vertex="1" parent="6f38eK32KTg8X7r3hpz9-2">
          <mxGeometry x="174" y="300" width="90" height="30" as="geometry" />
        </mxCell>
        <mxCell id="6f38eK32KTg8X7r3hpz9-22" value="Thêm hàng hóa" style="ellipse;whiteSpace=wrap;html=1;" vertex="1" parent="6f38eK32KTg8X7r3hpz9-2">
          <mxGeometry x="240" y="50" width="120" height="80" as="geometry" />
        </mxCell>
        <mxCell id="6f38eK32KTg8X7r3hpz9-24" value="Thống kê" style="ellipse;whiteSpace=wrap;html=1;" vertex="1" parent="6f38eK32KTg8X7r3hpz9-2">
          <mxGeometry x="210" y="140" width="120" height="80" as="geometry" />
        </mxCell>
        <mxCell id="6f38eK32KTg8X7r3hpz9-14" style="rounded=0;orthogonalLoop=1;jettySize=auto;html=1;exitX=1;exitY=0.3333333333333333;exitDx=0;exitDy=0;exitPerimeter=0;entryX=0;entryY=0.5;entryDx=0;entryDy=0;endArrow=none;endFill=0;" edge="1" parent="1" source="6f38eK32KTg8X7r3hpz9-3" target="6f38eK32KTg8X7r3hpz9-6">
          <mxGeometry relative="1" as="geometry" />
        </mxCell>
        <mxCell id="6f38eK32KTg8X7r3hpz9-15" style="rounded=0;orthogonalLoop=1;jettySize=auto;html=1;exitX=1;exitY=0.3333333333333333;exitDx=0;exitDy=0;exitPerimeter=0;endArrow=none;endFill=0;" edge="1" parent="1" source="6f38eK32KTg8X7r3hpz9-3" target="6f38eK32KTg8X7r3hpz9-7">
          <mxGeometry relative="1" as="geometry" />
        </mxCell>
        <mxCell id="6f38eK32KTg8X7r3hpz9-3" value="User" style="shape=umlActor;verticalLabelPosition=bottom;verticalAlign=top;html=1;outlineConnect=0;" vertex="1" parent="1">
          <mxGeometry x="60" y="270" width="50" height="80" as="geometry" />
        </mxCell>
        <mxCell id="6f38eK32KTg8X7r3hpz9-21" style="rounded=0;orthogonalLoop=1;jettySize=auto;html=1;endArrow=none;endFill=0;" edge="1" parent="1" source="6f38eK32KTg8X7r3hpz9-4" target="6f38eK32KTg8X7r3hpz9-18">
          <mxGeometry relative="1" as="geometry" />
        </mxCell>
        <mxCell id="6f38eK32KTg8X7r3hpz9-23" style="rounded=0;orthogonalLoop=1;jettySize=auto;html=1;exitX=0;exitY=0.3333333333333333;exitDx=0;exitDy=0;exitPerimeter=0;entryX=1;entryY=0.5;entryDx=0;entryDy=0;startArrow=none;startFill=0;endArrow=none;endFill=0;" edge="1" parent="1" source="6f38eK32KTg8X7r3hpz9-4" target="6f38eK32KTg8X7r3hpz9-22">
          <mxGeometry relative="1" as="geometry" />
        </mxCell>
        <mxCell id="6f38eK32KTg8X7r3hpz9-4" value="App" style="shape=umlActor;verticalLabelPosition=bottom;verticalAlign=top;html=1;outlineConnect=0;" vertex="1" parent="1">
          <mxGeometry x="720" y="290" width="30" height="60" as="geometry" />
        </mxCell>
        <mxCell id="6f38eK32KTg8X7r3hpz9-26" style="rounded=0;orthogonalLoop=1;jettySize=auto;html=1;exitX=1;exitY=0.5;exitDx=0;exitDy=0;endArrow=none;endFill=0;" edge="1" parent="1" source="6f38eK32KTg8X7r3hpz9-24">
          <mxGeometry relative="1" as="geometry">
            <mxPoint x="720" y="320" as="targetPoint" />
          </mxGeometry>
        </mxCell>
      </root>
    </mxGraphModel>
  </diagram>
</mxfile>
